<svg xmlns="http://www.w3.org/2000/svg" width="198" height="15" viewBox="0 0 198 15">
    <path fill="#000" fill-rule="evenodd" d="M172.477.031v2.7h-10.234c-.691 0-1.288.564-1.288 1.286v1.82c0 .376.283.659.66.659h9.92v2.73h-9.952a.63.63 0 0 0-.628.628V15h-2.888V3.452a3.592 3.592 0 0 1 3.328-3.42h11.082zM15.666.001c1.977 0 3.579 1.6 3.579 3.577V15h-2.889V4.048c0-.69-.565-1.287-1.287-1.287h-3.108c-.47 0-.91.408-.91.91V15H8.162V3.672a.944.944 0 0 0-.941-.942H4.176c-.691 0-1.288.565-1.288 1.287v10.952H0V3.609A3.583 3.583 0 0 1 3.58 0zM145.07 0c1.79.126 3.234 1.538 3.36 3.326V14.97h-2.889V9.822c0-.376-.282-.659-.628-.659h-8.821c-.345.032-.628.314-.628.66v5.146h-2.888V3.42C132.67 1.6 134.083.126 135.872 0zm-25.837.031a3.585 3.585 0 0 1 3.511 3.384l.005.194v2.008a3.585 3.585 0 0 1-3.322 3.57l-.194.008h-2.637c.512.601 1.052 2.817 2.229 3.055l.157.02h.346v-.032h3.61v2.7h-4.207c-2.417 0-3.202-1.852-4.175-3.829-.189-.377-.346-.753-.534-1.067-.316-.547-.818-.83-1.335-.873l-.14-.006h-2.167a.686.686 0 0 0-.62.558l-.007.101v5.147h-2.889V3.578c0-1.881 1.496-3.44 3.354-3.541l.194-.006h8.821zM86.427.001c1.978.03 3.579 1.63 3.579 3.608v7.343c.031.69.597 1.287 1.318 1.287h1.727c.69 0 1.287-.565 1.287-1.287V0h2.92v11.391c-.032 1.977-1.633 3.578-3.58 3.578h-2.95a3.576 3.576 0 0 1-3.579-3.578V4.017c0-.69-.565-1.287-1.287-1.287h-1.727c-.722 0-1.318.565-1.318 1.287v10.952h-2.888V3.578C79.929 1.6 81.529 0 83.507 0zM198 0v2.73h-6.781a.944.944 0 0 0-.942.94v11.266h-2.888V3.61a.91.91 0 0 0-.91-.91h-4.364V0H198zM66.743 0a3.608 3.608 0 0 1 3.54 3.38l.008.197h-.032v7.782c0 1.913-1.5 3.473-3.388 3.572l-.19.005h-8.697a3.576 3.576 0 0 1-3.574-3.387l-.005-.19V3.546c.03-1.88 1.528-3.439 3.386-3.54L57.984 0h8.76zM41.22 0c1.881.03 3.44 1.496 3.542 3.38l.006.197v7.782c0 1.913-1.5 3.473-3.39 3.572l-.19.005h-8.727a3.577 3.577 0 0 1-3.574-3.387l-.005-.19V3.546c.03-1.88 1.528-3.439 3.386-3.54L32.46 0h8.76zm24.895 2.76h-7.503c-.677 0-1.243.497-1.311 1.154l-.007.133v6.935c0 .648.496 1.212 1.153 1.28l.134.007h7.503a1.368 1.368 0 0 0 1.306-1.159l.012-.128V4.048c0-.69-.565-1.287-1.287-1.287zm-25.554 0h-7.503c-.648 0-1.212.497-1.28 1.154l-.007.133v6.935c0 .648.496 1.212 1.153 1.28l.134.007h7.534c.647-.03 1.212-.528 1.255-1.159l.001-.128V4.048c0-.69-.565-1.287-1.287-1.287zm103.693-.03h-7.503c-.722 0-1.318.564-1.318 1.286v1.788c0 .377.314.66.659.66v-.032h8.79c.377 0 .66-.282.66-.628V4.017c0-.69-.566-1.287-1.288-1.287zm-25.711 0h-7.503c-.648 0-1.213.496-1.28 1.152l-.007.134v1.82a.63.63 0 0 0 .535.62l.092.007h8.163c.647 0 1.212-.496 1.28-1.153l.007-.133V4.017c0-.69-.565-1.287-1.287-1.287z"/>
</svg>
